<svg width="16" height="56" viewBox="0 0 16 56" fill="none" xmlns="http://www.w3.org/2000/svg">
    <rect x="0.5" y="0.5" width="15" height="55" rx="3.5" fill="white" stroke="#D8A77A"/>
    <g clip-path="url(#clip0_433_7565)">
        <path fill-rule="evenodd" clip-rule="evenodd" d="M7.84938 31.5357C7.45886 31.9262 6.82569 31.9262 6.43517 31.5357C6.04464 31.1452 6.04464 30.512 6.43517 30.1215L8.55646 28.0002L6.43514 25.8789C6.04462 25.4884 6.04462 24.8552 6.43514 24.4647C6.82567 24.0742 7.45883 24.0742 7.84936 24.4647L10.6716 27.2869C10.6737 27.289 10.6758 27.291 10.6778 27.2931C11.0676 27.6828 11.0683 28.3143 10.6801 28.705C10.6793 28.7058 10.6786 28.7066 10.6778 28.7073M7.84938 31.5357L10.6773 28.7078L7.84938 31.5357Z" fill="#D8A77A"/>
    </g>
    <defs>
        <clipPath id="clip0_433_7565">
            <rect width="14" height="9" fill="white" transform="matrix(-3.12224e-08 -1 -1 6.11959e-08 13 35)"/>
        </clipPath>
    </defs>
</svg>
