<svg width="32" height="32" viewBox="0 0 32 32" fill="none" xmlns="http://www.w3.org/2000/svg">
    <path d="M25.7439 22.4101H22.9641C22.4619 22.4101 22.0545 22.003 22.0545 21.5005C22.0545 20.998 22.4616 20.5908 22.9641 20.5908H25.7439C25.9662 20.5908 26.154 20.3709 26.154 20.1106V7.39379C26.154 7.13343 25.9662 6.91352 25.7439 6.91352H10.3563C10.134 6.91352 9.94624 7.13343 9.94624 7.39379V10.4991C9.94624 11.0013 9.5391 11.4087 9.0366 11.4087C8.5341 11.4087 8.12695 11.0016 8.12695 10.4991V7.39379C8.12695 6.12576 9.12713 5.09424 10.3563 5.09424H25.7439C26.9731 5.09424 27.9733 6.12576 27.9733 7.39379V20.1106C27.9733 21.3786 26.9731 22.4101 25.7439 22.4101Z" fill="#D8A77A"/>
    <path d="M21.6443 26.9057H6.25672C5.02752 26.9057 4.02734 25.8742 4.02734 24.6062V11.8894C4.02734 10.6214 5.02752 9.58984 6.25672 9.58984H21.6443C22.8735 9.58984 23.8737 10.6214 23.8737 11.8894V24.6062C23.8737 25.8742 22.8735 26.9057 21.6443 26.9057ZM6.25672 11.4091C6.0344 11.4091 5.84663 11.629 5.84663 11.8894V24.6062C5.84663 24.8665 6.0344 25.0865 6.25672 25.0865H21.6443C21.8666 25.0865 22.0544 24.8665 22.0544 24.6062V11.8894C22.0544 11.629 21.8666 11.4091 21.6443 11.4091H6.25672Z" fill="#D8A77A"/>
</svg>
