<svg width="32" height="32" viewBox="0 0 32 32" fill="none" xmlns="http://www.w3.org/2000/svg">
    <path fill-rule="evenodd" clip-rule="evenodd" d="M24.789 20.5919H24.389V11.1236L24.6574 11.0301C25.1204 10.8688 25.5348 10.5926 25.8619 10.2274C26.189 9.86211 26.4179 9.4198 26.5274 8.94189C26.6368 8.46397 26.6231 7.96609 26.4875 7.49492C26.3519 7.02376 26.0989 6.59472 25.7523 6.24804C25.4056 5.90136 24.9765 5.64837 24.5054 5.5128C24.0342 5.37724 23.5363 5.36352 23.0584 5.47294C22.5805 5.58236 22.1382 5.81134 21.7729 6.13841C21.4077 6.46547 21.1315 6.87993 20.9702 7.34292L20.8766 7.61131H11.1241L11.0306 7.34292C10.8693 6.87993 10.5931 6.46547 10.2278 6.13841C9.8626 5.81134 9.42029 5.58236 8.94237 5.47294C8.46446 5.36352 7.96658 5.37724 7.49541 5.5128C7.02424 5.64837 6.59521 5.90136 6.24853 6.24804C5.90184 6.59472 5.64886 7.02376 5.51329 7.49492C5.37772 7.96609 5.36401 8.46397 5.47343 8.94189C5.58285 9.4198 5.81182 9.86211 6.13889 10.2274C6.46596 10.5926 6.88041 10.8688 7.3434 11.0301L7.6118 11.1236V20.8762L7.3434 20.9697C6.88041 21.131 6.46596 21.4072 6.13889 21.7724C5.81182 22.1377 5.58285 22.58 5.47343 23.0579C5.36401 23.5358 5.37772 24.0337 5.51329 24.5049C5.64886 24.976 5.90184 25.4051 6.24853 25.7518C6.59521 26.0984 7.02424 26.3514 7.49541 26.487C7.96658 26.6226 8.46446 26.6363 8.94237 26.5269C9.42029 26.4174 9.8626 26.1885 10.2278 25.8614C10.5931 25.5343 10.8693 25.1199 11.0306 24.6569L11.1241 24.3885H20.8766L20.9702 24.6569C21.1315 25.1199 21.4077 25.5343 21.7729 25.8614C22.1382 26.1885 22.5805 26.4174 23.0584 26.5269C23.5363 26.6363 24.0342 26.6226 24.5054 26.487C24.9765 26.3514 25.4056 26.0984 25.7523 25.7518C26.0989 25.4051 26.3519 24.976 26.4875 24.5049C26.6231 24.0337 26.6368 23.5358 26.5274 23.0579C26.4179 22.58 26.189 22.1377 25.8619 21.7724C25.5348 21.4072 25.1204 21.131 24.6574 20.9697L24.789 20.5919ZM20.5924 22.5913V22.9913H11.1262L11.0315 22.7255C10.8874 22.3207 10.655 21.953 10.3511 21.6492C10.0473 21.3453 9.67961 21.1129 9.27479 20.9688L9.00895 20.8741V11.1257L9.27479 11.031C9.67961 10.8869 10.0473 10.6545 10.3511 10.3506C10.655 10.0468 10.8874 9.67912 11.0315 9.2743L11.1262 9.00846H20.8746L20.9693 9.2743C21.1134 9.67912 21.3458 10.0468 21.6497 10.3506C21.9535 10.6545 22.3212 10.8869 22.726 11.031L22.9918 11.1257V20.8741L22.726 20.9688C22.3212 21.1129 21.9535 21.3453 21.6497 21.6492C21.3458 21.953 21.1134 22.3207 20.9693 22.7255L20.5924 22.5913ZM24.523 7.06387C24.2765 6.8992 23.9868 6.81131 23.6904 6.81131C23.293 6.81131 22.9118 6.9692 22.6308 7.25024C22.3497 7.53127 22.1918 7.91244 22.1918 8.30989C22.1918 8.60628 22.2797 8.89601 22.4444 9.14245C22.6091 9.38889 22.8431 9.58097 23.1169 9.69439C23.3908 9.80781 23.6921 9.83749 23.9828 9.77967C24.2735 9.72184 24.5405 9.57912 24.7501 9.36954C24.9596 9.15996 25.1024 8.89294 25.1602 8.60224C25.218 8.31155 25.1883 8.01024 25.0749 7.73641C24.9615 7.46258 24.7694 7.22853 24.523 7.06387ZM9.14294 7.06387C8.8965 6.8992 8.60677 6.81131 8.31038 6.81131C7.91293 6.81131 7.53176 6.9692 7.25072 7.25024C6.96969 7.53127 6.8118 7.91244 6.8118 8.30989C6.8118 8.60628 6.89969 8.89601 7.06436 9.14245C7.22902 9.38889 7.46307 9.58097 7.7369 9.69439C8.01073 9.80781 8.31204 9.83749 8.60273 9.77967C8.89343 9.72184 9.16045 9.57912 9.37003 9.36954C9.57961 9.15996 9.72233 8.89294 9.78015 8.60224C9.83798 8.31155 9.8083 8.01024 9.69488 7.73641C9.58145 7.46258 9.38938 7.22853 9.14294 7.06387ZM7.47781 24.9359C7.72425 25.1006 8.01399 25.1885 8.31038 25.1885C8.70782 25.1885 9.08899 25.0306 9.37003 24.7496C9.65106 24.4685 9.80895 24.0874 9.80895 23.6899C9.80895 23.3935 9.72106 23.1038 9.55639 22.8574C9.39173 22.6109 9.15768 22.4188 8.88385 22.3054C8.61003 22.192 8.30871 22.1623 8.01802 22.2201C7.72732 22.278 7.4603 22.4207 7.25072 22.6303C7.04115 22.8398 6.89842 23.1069 6.8406 23.3976C6.78277 23.6883 6.81245 23.9896 6.92587 24.2634C7.0393 24.5372 7.23137 24.7713 7.47781 24.9359ZM22.8578 24.9359C23.1043 25.1006 23.394 25.1885 23.6904 25.1885C24.0879 25.1885 24.469 25.0306 24.7501 24.7496C25.0311 24.4685 25.189 24.0874 25.189 23.6899C25.189 23.3935 25.1011 23.1038 24.9364 22.8574C24.7718 22.6109 24.5377 22.4188 24.2639 22.3054C23.9901 22.192 23.6887 22.1623 23.398 22.2201C23.1074 22.278 22.8403 22.4207 22.6308 22.6303C22.4212 22.8398 22.2784 23.1069 22.2206 23.3976C22.1628 23.6883 22.1925 23.9896 22.3059 24.2634C22.4193 24.5372 22.6114 24.7713 22.8578 24.9359Z" fill="#4F4F4F"/>
    <path d="M19 13L13 19" stroke="#4F4F4F" stroke-width="1.6" stroke-linecap="round"/>
</svg>
