<svg width="24" height="24" viewBox="0 0 24 24" fill="none" xmlns="http://www.w3.org/2000/svg">
    <path fill-rule="evenodd" clip-rule="evenodd" d="M23.6001 7.32652C23.6001 7.51158 23.527 7.68913 23.3965 7.82044L7.81989 23.3971C7.68939 23.5263 7.51275 23.5991 7.3291 23.5999C7.23685 23.6004 7.14541 23.5827 7.06001 23.5479C6.97486 23.5131 6.89682 23.4613 6.83145 23.3966L0.602107 17.1673C0.471655 17.036 0.398438 16.8584 0.398438 16.6733C0.398438 16.4884 0.47207 16.3104 0.602259 16.1791L16.2337 0.602761C16.3642 0.473534 16.5409 0.400687 16.7245 0.399914C16.8168 0.399381 16.9082 0.417061 16.9936 0.451942C17.0786 0.486635 17.1559 0.537664 17.2211 0.60213L17.2222 0.60318L23.3963 6.83237C23.5269 6.9637 23.6001 7.14134 23.6001 7.32652ZM18.7191 8.38634L19.7818 9.449L21.9128 7.33302L16.6672 2.08744L2.08683 16.6678L7.33241 21.9134L9.44839 19.7824L6.83329 17.1673C6.70284 17.036 6.62962 16.8584 6.62962 16.6733C6.62962 16.4885 6.70259 16.3112 6.83263 16.18C6.96387 16.05 7.14114 15.977 7.3259 15.977C7.51103 15.977 7.68873 16.0503 7.82005 16.1808L10.4487 18.7971L12.566 16.6648L11.5005 15.6143L11.4996 15.6134C11.3679 15.4812 11.2939 15.3022 11.2939 15.1155C11.2939 14.9284 11.3682 14.749 11.5005 14.6167C11.6328 14.4844 11.8122 14.4101 11.9993 14.4101C12.186 14.4101 12.365 14.4841 12.4972 14.6158L12.4981 14.6167L13.5496 15.6832L15.6806 13.5522L13.0759 10.9476C12.9669 10.815 12.9101 10.6469 12.9167 10.4751C12.9236 10.2987 12.9967 10.1314 13.1215 10.0065C13.2463 9.8817 13.4137 9.80857 13.5901 9.80176C13.7619 9.79512 13.93 9.85188 14.0625 9.96096L16.6662 12.5646L18.7972 10.4486L17.7317 9.38312L17.7305 9.38196C17.6648 9.3168 17.6127 9.23928 17.5771 9.15387C17.5415 9.06846 17.5232 8.97684 17.5232 8.88431C17.5232 8.79178 17.5415 8.70017 17.5771 8.61476C17.6127 8.52935 17.6651 8.45151 17.7308 8.38634C17.8622 8.2558 18.0398 8.18252 18.225 8.18252C18.4099 8.18252 18.5878 8.25606 18.7191 8.38634Z" fill="#4F4F4F"/>
</svg>
