<svg width="20" height="20" viewBox="0 0 20 20" fill="none" xmlns="http://www.w3.org/2000/svg">
    <path d="M10.8484 1.2499V9.1499H18.7484C18.9739 9.1499 19.1901 9.23946 19.3495 9.39886C19.5089 9.55827 19.5984 9.77447 19.5984 9.9999C19.5984 10.2253 19.5089 10.4415 19.3495 10.6009C19.1901 10.7603 18.9739 10.8499 18.7484 10.8499H10.8484V18.7499C10.8484 18.9753 10.7589 19.1915 10.5995 19.3509C10.4401 19.5103 10.2239 19.5999 9.99844 19.5999C9.773 19.5999 9.5568 19.5103 9.3974 19.3509C9.23799 19.1915 9.14844 18.9753 9.14844 18.7499V10.8499H1.24844C1.023 10.8499 0.806803 10.7603 0.647397 10.6009C0.487991 10.4415 0.398438 10.2253 0.398438 9.9999C0.398438 9.77447 0.487991 9.55827 0.647397 9.39886C0.806803 9.23946 1.023 9.1499 1.24844 9.1499H9.14844V1.2499C9.14844 1.02447 9.23799 0.808268 9.3974 0.648862C9.5568 0.489456 9.773 0.399902 9.99844 0.399902C10.2239 0.399902 10.4401 0.489456 10.5995 0.648862C10.7589 0.808268 10.8484 1.02447 10.8484 1.2499Z" fill="#4F4F4F"/>
</svg>
