<svg width="28" height="26" viewBox="0 0 28 26" fill="none" xmlns="http://www.w3.org/2000/svg">
    <path d="M19.1346 5.66683V5.86683H19.3346H23.3346C24.3425 5.86683 25.309 6.26719 26.0216 6.97982C26.7343 7.69246 27.1346 8.65901 27.1346 9.66683V21.6668C27.1346 22.6747 26.7343 23.6412 26.0216 24.3538C25.309 25.0665 24.3425 25.4668 23.3346 25.4668H4.66797C3.66015 25.4668 2.6936 25.0665 1.98096 24.3538C1.26832 23.6412 0.867969 22.6747 0.867969 21.6668V9.66683C0.867969 8.65901 1.26832 7.69246 1.98096 6.97982C2.6936 6.26719 3.66015 5.86683 4.66797 5.86683H8.66797H8.86797V5.66683V4.3335C8.86797 3.32567 9.26832 2.35913 9.98096 1.64649C10.6936 0.933852 11.6601 0.533496 12.668 0.533496H15.3346C16.3425 0.533496 17.309 0.933852 18.0216 1.64649C18.7343 2.35913 19.1346 3.32567 19.1346 4.3335V5.66683ZM16.668 5.86683H16.868V5.66683V4.3335C16.868 3.92683 16.7064 3.53682 16.4189 3.24927C16.1313 2.96171 15.7413 2.80016 15.3346 2.80016H12.668C12.2613 2.80016 11.8713 2.96171 11.5837 3.24927C11.2962 3.53682 11.1346 3.92683 11.1346 4.3335V5.66683V5.86683H11.3346H16.668ZM3.40838 14.1476L3.13464 14.039V14.3335V21.6668C3.13464 22.0735 3.29618 22.4635 3.58374 22.7511C3.87129 23.0386 4.2613 23.2002 4.66797 23.2002H23.3346C23.7413 23.2002 24.1313 23.0386 24.4189 22.7511C24.7064 22.4635 24.868 22.0735 24.868 21.6668V14.3335V14.039L24.5942 14.1476C23.3028 14.6598 21.9753 15.0758 20.6224 15.3921L20.468 15.4282V15.5868V16.3735C20.468 16.6741 20.3486 16.9623 20.136 17.1749C19.9235 17.3874 19.6352 17.5068 19.3346 17.5068C19.0341 17.5068 18.7458 17.3874 18.5332 17.1749C18.3207 16.9623 18.2013 16.6741 18.2013 16.3735V16.0935V15.8644L17.9743 15.8953C16.6575 16.0746 15.3303 16.1675 14.0013 16.1735C12.6723 16.1675 11.3451 16.0746 10.0283 15.8953L9.8013 15.8644V16.0935V16.3735C9.8013 16.6741 9.6819 16.9623 9.46936 17.1749C9.25681 17.3874 8.96855 17.5068 8.66797 17.5068C8.36739 17.5068 8.07912 17.3874 7.86658 17.1749C7.65404 16.9623 7.53464 16.6741 7.53464 16.3735V15.5868V15.4282L7.38017 15.3921C6.02735 15.0758 4.69979 14.6598 3.40838 14.1476ZM24.7457 11.5978L24.868 11.5462V11.4135V9.66683C24.868 9.26016 24.7064 8.87016 24.4189 8.5826C24.1313 8.29504 23.7413 8.1335 23.3346 8.1335H4.66797C4.2613 8.1335 3.87129 8.29504 3.58374 8.5826C3.29618 8.87015 3.13464 9.26016 3.13464 9.66683V11.4402V11.5728L3.25687 11.6244C4.56321 12.1758 5.91041 12.6248 7.28629 12.9676L7.53464 13.0294V12.7735V12.3335C7.53464 12.0329 7.65404 11.7446 7.86658 11.5321C8.07912 11.3196 8.36739 11.2002 8.66797 11.2002C8.96855 11.2002 9.25681 11.3196 9.46936 11.5321C9.6819 11.7446 9.8013 12.0329 9.8013 12.3335V13.3202V13.4923L9.97147 13.5179C12.6429 13.921 15.3597 13.921 18.0311 13.5179L18.2013 13.4923V13.3202V12.3335C18.2013 12.0329 18.3207 11.7446 18.5332 11.5321C18.7458 11.3196 19.0341 11.2002 19.3346 11.2002C19.6352 11.2002 19.9235 11.3196 20.136 11.5321C20.3486 11.7446 20.468 12.0329 20.468 12.3335V12.7468V13.0028L20.7163 12.9409C22.0922 12.5982 23.4394 12.1491 24.7457 11.5978Z" fill="#DBAA78" stroke="white" stroke-width="0.4"/>
</svg>
