<svg width="12" height="12" viewBox="0 0 12 12" fill="none" xmlns="http://www.w3.org/2000/svg">
    <path d="M7.05749 5.99936L11.7796 1.28477C11.9207 1.14363 12 0.952206 12 0.752604C12 0.553001 11.9207 0.361573 11.7796 0.220433C11.6384 0.079292 11.447 0 11.2474 0C11.0478 0 10.8564 0.079292 10.7152 0.220433L6.00064 4.94251L1.28605 0.220433C1.14491 0.079292 0.953486 1.77216e-07 0.753883 1.78703e-07C0.55428 1.80191e-07 0.362852 0.079292 0.221712 0.220433C0.0805712 0.361573 0.00127934 0.553001 0.00127934 0.752604C0.00127934 0.952206 0.0805712 1.14363 0.221712 1.28477L4.94379 5.99936L0.221712 10.7139C0.151459 10.7836 0.0956977 10.8665 0.0576447 10.9579C0.0195918 11.0492 0 11.1472 0 11.2461C0 11.3451 0.0195918 11.443 0.0576447 11.5344C0.0956977 11.6257 0.151459 11.7086 0.221712 11.7783C0.291391 11.8485 0.37429 11.9043 0.465628 11.9424C0.556966 11.9804 0.654935 12 0.753883 12C0.852831 12 0.950799 11.9804 1.04214 11.9424C1.13348 11.9043 1.21637 11.8485 1.28605 11.7783L6.00064 7.05621L10.7152 11.7783C10.7849 11.8485 10.8678 11.9043 10.9591 11.9424C11.0505 11.9804 11.1485 12 11.2474 12C11.3463 12 11.4443 11.9804 11.5357 11.9424C11.627 11.9043 11.7099 11.8485 11.7796 11.7783C11.8498 11.7086 11.9056 11.6257 11.9436 11.5344C11.9817 11.443 12.0013 11.3451 12.0013 11.2461C12.0013 11.1472 11.9817 11.0492 11.9436 10.9579C11.9056 10.8665 11.8498 10.7836 11.7796 10.7139L7.05749 5.99936Z" fill="#4F4F4F"/>
</svg>
