<svg width="16" height="56" viewBox="0 0 16 56" fill="none" xmlns="http://www.w3.org/2000/svg">
    <rect x="-0.5" y="0.5" width="15" height="55" rx="3.5" transform="matrix(-1 0 0 1 15 0)" fill="white" stroke="#D8A77A"/>
    <g clip-path="url(#clip0_433_7571)">
        <path fill-rule="evenodd" clip-rule="evenodd" d="M8.15062 31.5357C8.54114 31.9262 9.17431 31.9262 9.56483 31.5357C9.95536 31.1452 9.95536 30.512 9.56483 30.1215L7.44354 28.0002L9.56486 25.8789C9.95538 25.4884 9.95538 24.8552 9.56486 24.4647C9.17433 24.0742 8.54117 24.0742 8.15064 24.4647L5.32838 27.2869C5.32631 27.289 5.32425 27.291 5.32219 27.2931C4.93242 27.6828 4.93167 28.3143 5.31992 28.705C5.32068 28.7058 5.32145 28.7066 5.32222 28.7073M8.15062 31.5357L5.32268 28.7078L8.15062 31.5357Z" fill="#D8A77A"/>
    </g>
    <defs>
        <clipPath id="clip0_433_7571">
            <rect width="14" height="9" fill="white" transform="translate(3 35) rotate(-90)"/>
        </clipPath>
    </defs>
</svg>
