<svg width="32" height="32" viewBox="0 0 32 32" fill="none" xmlns="http://www.w3.org/2000/svg">
    <path d="M4.46833 21.5325L4.46832 21.5325L4.47018 21.5332C4.62089 21.5917 4.75864 21.6792 4.87559 21.7907C4.98716 21.9077 5.07465 22.0454 5.13309 22.1962L5.13305 22.1962L5.13414 22.1988C5.22859 22.4234 5.2544 22.6709 5.2083 22.9102C5.16238 23.1485 5.04714 23.368 4.87706 23.5412C4.75638 23.6504 4.61797 23.7383 4.46777 23.8011L4.46776 23.801L4.4659 23.8019C4.31903 23.8668 4.16023 23.9003 3.99966 23.9003C3.83909 23.9003 3.68028 23.8668 3.53342 23.8019L3.53343 23.8019L3.53155 23.8011C3.38135 23.7383 3.24294 23.6504 3.12226 23.5412C2.95218 23.368 2.83694 23.1485 2.79102 22.9102C2.74492 22.6709 2.77073 22.4234 2.86517 22.1988L2.86521 22.1988L2.86623 22.1962C2.92467 22.0454 3.01216 21.9077 3.12372 21.7907C3.24068 21.6792 3.37843 21.5917 3.52914 21.5332L3.52915 21.5333L3.53099 21.5325C3.83126 21.4091 4.16806 21.4091 4.46833 21.5325ZM3.53155 14.8656L3.53176 14.8655C3.75636 14.7711 4.00391 14.7453 4.24316 14.7914C4.48195 14.8374 4.70179 14.9529 4.87507 15.1235C4.98689 15.2406 5.07456 15.3785 5.13309 15.5295L5.13299 15.5295L5.13486 15.5338C5.19977 15.6806 5.2333 15.8394 5.2333 16C5.2333 16.1606 5.19977 16.3194 5.13486 16.4662L5.13484 16.4662L5.13406 16.4681C5.07155 16.6177 4.98414 16.7556 4.87553 16.8759C4.75522 16.9845 4.61734 17.0719 4.46777 17.1344L4.46776 17.1344L4.4659 17.1352C4.31903 17.2001 4.16023 17.2336 3.99966 17.2336C3.83909 17.2336 3.68028 17.2001 3.53342 17.1352L3.53343 17.1352L3.53155 17.1344C3.38198 17.0719 3.2441 16.9845 3.12379 16.8759C3.01518 16.7556 2.92776 16.6177 2.86526 16.4681L2.86528 16.4681L2.86446 16.4662C2.79954 16.3194 2.76602 16.1606 2.76602 16C2.76602 15.8394 2.79954 15.6806 2.86446 15.5338L2.86455 15.5338L2.86623 15.5295C2.92451 15.3792 3.01169 15.2418 3.12283 15.125C3.24337 15.016 3.38158 14.9283 3.53155 14.8656ZM4.46756 8.19885L4.46755 8.19888L4.47018 8.1999C4.62049 8.25818 4.75791 8.34537 4.87466 8.4565C4.98367 8.57705 5.07139 8.71526 5.13406 8.86522L5.13404 8.86523L5.13486 8.86709C5.19977 9.01396 5.2333 9.17276 5.2333 9.33333C5.2333 9.49391 5.19977 9.65271 5.13486 9.79957L5.13484 9.79957L5.13406 9.80144C5.07129 9.95165 4.9834 10.0901 4.87415 10.2107C4.70102 10.3808 4.48152 10.4961 4.24316 10.542C4.00391 10.5881 3.75636 10.5623 3.53176 10.4678L3.53155 10.4677C3.38198 10.4052 3.2441 10.3178 3.12379 10.2092C3.01518 10.0889 2.92776 9.95101 2.86526 9.80144L2.86528 9.80143L2.86446 9.79957C2.79954 9.65271 2.76602 9.49391 2.76602 9.33333C2.76602 9.17276 2.79954 9.01396 2.86446 8.86709L2.86448 8.8671L2.86526 8.86522C2.92803 8.71502 3.01592 8.57662 3.12516 8.45594C3.2983 8.28585 3.51779 8.17061 3.75616 8.12469C3.99541 8.0786 4.24296 8.1044 4.46756 8.19885ZM27.9997 10.5667H9.33299C9.00589 10.5667 8.69219 10.4367 8.46089 10.2054C8.2296 9.97414 8.09966 9.66043 8.09966 9.33333C8.09966 9.00623 8.2296 8.69253 8.46089 8.46124C8.69219 8.22994 9.00589 8.1 9.33299 8.1H27.9997C28.3268 8.1 28.6405 8.22994 28.8718 8.46124C29.1031 8.69253 29.233 9.00623 29.233 9.33333C29.233 9.66043 29.1031 9.97414 28.8718 10.2054C28.6405 10.4367 28.3268 10.5667 27.9997 10.5667ZM9.33299 14.7667H27.9997C28.3268 14.7667 28.6405 14.8966 28.8718 15.1279C29.1031 15.3592 29.233 15.6729 29.233 16C29.233 16.3271 29.1031 16.6408 28.8718 16.8721C28.6405 17.1034 28.3268 17.2333 27.9997 17.2333H9.33299C9.00589 17.2333 8.69219 17.1034 8.46089 16.8721C8.2296 16.6408 8.09966 16.3271 8.09966 16C8.09966 15.6729 8.2296 15.3592 8.46089 15.1279C8.69219 14.8966 9.00589 14.7667 9.33299 14.7667ZM9.33299 21.4333H27.9997C28.3268 21.4333 28.6405 21.5633 28.8718 21.7946C29.1031 22.0259 29.233 22.3396 29.233 22.6667C29.233 22.9938 29.1031 23.3075 28.8718 23.5388C28.6405 23.7701 28.3268 23.9 27.9997 23.9H9.33299C9.00589 23.9 8.69219 23.7701 8.46089 23.5388C8.2296 23.3075 8.09966 22.9938 8.09966 22.6667C8.09966 22.3396 8.2296 22.0259 8.46089 21.7946C8.69219 21.5633 9.00589 21.4333 9.33299 21.4333Z" fill="#DBAA78" stroke="white" stroke-width="0.2"/>
</svg>
