<svg width="22" height="22" viewBox="0 0 22 22" fill="none" xmlns="http://www.w3.org/2000/svg">
    <path fill-rule="evenodd" clip-rule="evenodd" d="M19.787 15.5919H19.387V6.12364L19.6554 6.03013C20.1184 5.86883 20.5329 5.59261 20.8599 5.22736C21.187 4.86211 21.416 4.4198 21.5254 3.94189C21.6348 3.46397 21.6211 2.96609 21.4855 2.49492C21.35 2.02376 21.097 1.59472 20.7503 1.24804C20.4036 0.901356 19.9746 0.648374 19.5034 0.512805C19.0322 0.377235 18.5344 0.363519 18.0565 0.47294C17.5785 0.58236 17.1362 0.811336 16.771 1.13841C16.4057 1.46547 16.1295 1.87993 15.9682 2.34292L15.8747 2.61131H6.12218L6.02867 2.34292C5.86736 1.87993 5.59114 1.46547 5.2259 1.13841C4.86065 0.811336 4.41834 0.58236 3.94042 0.47294C3.4625 0.363519 2.96463 0.377235 2.49346 0.512805C2.02229 0.648374 1.59326 0.901356 1.24657 1.24804C0.899891 1.59472 0.646909 2.02376 0.51134 2.49492C0.375771 2.96609 0.362054 3.46397 0.471475 3.94189C0.580896 4.4198 0.809871 4.86211 1.13694 5.22736C1.46401 5.59261 1.87846 5.86883 2.34145 6.03013L2.60985 6.12364V15.8762L2.34145 15.9697C1.87846 16.131 1.46401 16.4072 1.13694 16.7724C0.809871 17.1377 0.580896 17.58 0.471475 18.0579C0.362054 18.5358 0.375771 19.0337 0.51134 19.5049C0.646909 19.976 0.899891 20.4051 1.24657 20.7518C1.59326 21.0984 2.02229 21.3514 2.49346 21.487C2.96463 21.6226 3.4625 21.6363 3.94042 21.5269C4.41834 21.4174 4.86065 21.1885 5.2259 20.8614C5.59114 20.5343 5.86736 20.1199 6.02867 19.6569L6.12218 19.3885H15.8747L15.9682 19.6569C16.1295 20.1199 16.4057 20.5343 16.771 20.8614C17.1362 21.1885 17.5785 21.4174 18.0565 21.5269C18.5344 21.6363 19.0322 21.6226 19.5034 21.487C19.9746 21.3514 20.4036 21.0984 20.7503 20.7518C21.097 20.4051 21.35 19.976 21.4855 19.5049C21.6211 19.0337 21.6348 18.5358 21.5254 18.0579C21.416 17.58 21.187 17.1377 20.8599 16.7724C20.5329 16.4072 20.1184 16.131 19.6554 15.9697L19.787 15.5919ZM15.5905 17.5913V17.9913H6.12422L6.02957 17.7255C5.88544 17.3207 5.65302 16.953 5.34917 16.6492C5.04532 16.3453 4.67765 16.1129 4.27283 15.9688L4.007 15.8741V6.12568L4.27283 6.03104C4.67765 5.88691 5.04532 5.65449 5.34917 5.35064C5.65302 5.04679 5.88544 4.67912 6.02957 4.2743L6.12422 4.00846H15.8727L15.9673 4.2743C16.1114 4.67912 16.3438 5.04679 16.6477 5.35064C16.9516 5.65449 17.3192 5.88691 17.724 6.03104L17.9899 6.12568V15.8741L17.724 15.9688C17.3192 16.1129 16.9516 16.3453 16.6477 16.6492C16.3438 16.953 16.1114 17.3207 15.9673 17.7255L15.5905 17.5913ZM19.521 2.06387C19.2746 1.8992 18.9848 1.81131 18.6885 1.81131C18.291 1.81131 17.9098 1.9692 17.6288 2.25024C17.3478 2.53127 17.1899 2.91244 17.1899 3.30989C17.1899 3.60628 17.2778 3.89601 17.4424 4.14245C17.6071 4.38889 17.8411 4.58097 18.115 4.69439C18.3888 4.80781 18.6901 4.83749 18.9808 4.77967C19.2715 4.72184 19.5385 4.57912 19.7481 4.36954C19.9577 4.15996 20.1004 3.89294 20.1582 3.60224C20.2161 3.31155 20.1864 3.01024 20.073 2.73641C19.9595 2.46258 19.7675 2.22853 19.521 2.06387ZM4.14099 2.06387C3.89455 1.8992 3.60481 1.81131 3.30842 1.81131C2.91098 1.81131 2.52981 1.9692 2.24877 2.25024C1.96773 2.53127 1.80985 2.91244 1.80985 3.30989C1.80985 3.60628 1.89774 3.89601 2.0624 4.14245C2.22707 4.38889 2.46111 4.58097 2.73494 4.69439C3.00877 4.80781 3.31008 4.83749 3.60078 4.77967C3.89147 4.72184 4.15849 4.57912 4.36807 4.36954C4.57765 4.15996 4.72038 3.89294 4.7782 3.60224C4.83602 3.31155 4.80635 3.01024 4.69292 2.73641C4.5795 2.46258 4.38742 2.22853 4.14099 2.06387ZM2.47586 19.9359C2.7223 20.1006 3.01203 20.1885 3.30842 20.1885C3.70587 20.1885 4.08704 20.0306 4.36807 19.7496C4.64911 19.4685 4.807 19.0874 4.807 18.6899C4.807 18.3935 4.71911 18.1038 4.55444 17.8574C4.38978 17.6109 4.15573 17.4188 3.8819 17.3054C3.60807 17.192 3.30676 17.1623 3.01607 17.2201C2.72537 17.278 2.45835 17.4207 2.24877 17.6303C2.03919 17.8398 1.89647 18.1069 1.83864 18.3976C1.78082 18.6883 1.8105 18.9896 1.92392 19.2634C2.03734 19.5372 2.22942 19.7713 2.47586 19.9359ZM17.8559 19.9359C18.1023 20.1006 18.3921 20.1885 18.6885 20.1885C19.0859 20.1885 19.4671 20.0306 19.7481 19.7496C20.0291 19.4685 20.187 19.0874 20.187 18.6899C20.187 18.3935 20.0991 18.1038 19.9345 17.8574C19.7698 17.6109 19.5358 17.4188 19.2619 17.3054C18.9881 17.192 18.6868 17.1623 18.3961 17.2201C18.1054 17.278 17.8384 17.4207 17.6288 17.6303C17.4192 17.8398 17.2765 18.1069 17.2187 18.3976C17.1609 18.6883 17.1905 18.9896 17.3039 19.2634C17.4174 19.5372 17.6094 19.7713 17.8559 19.9359Z" fill="#4F4F4F"/>
</svg>
