<svg width="20" height="22" viewBox="0 0 20 22" fill="none" xmlns="http://www.w3.org/2000/svg">
    <path d="M8.27905 17.1694C8.14569 17.3028 7.96481 17.3777 7.77622 17.3777C7.58762 17.3777 7.40674 17.3028 7.27338 17.1694C7.14003 17.036 7.0651 16.8552 7.0651 16.6666V9.9999C7.0651 9.8113 7.14002 9.63043 7.27338 9.49707C7.40674 9.36371 7.58762 9.28879 7.77622 9.28879C7.96481 9.28879 8.14569 9.36371 8.27905 9.49707C8.41241 9.63043 8.48733 9.8113 8.48733 9.9999V16.6666C8.48733 16.8552 8.41241 17.036 8.27905 17.1694Z" fill="#4F4F4F"/>
    <path d="M12.7235 17.1694C12.5901 17.3028 12.4093 17.3777 12.2207 17.3777C12.0321 17.3777 11.8512 17.3028 11.7178 17.1694C11.5845 17.036 11.5095 16.8552 11.5095 16.6666V9.9999C11.5095 9.8113 11.5845 9.63043 11.7178 9.49707C11.8512 9.36371 12.0321 9.28879 12.2207 9.28879C12.4093 9.28879 12.5901 9.36371 12.7235 9.49707C12.8569 9.63043 12.9318 9.8113 12.9318 9.9999V16.6666C12.9318 16.8552 12.8569 17.036 12.7235 17.1694Z" fill="#4F4F4F"/>
    <path fill-rule="evenodd" clip-rule="evenodd" d="M14.0429 3.33324V4.84435H18.8873C19.0759 4.84435 19.2568 4.91927 19.3902 5.05263C19.5235 5.18599 19.5984 5.36686 19.5984 5.55546C19.5984 5.74406 19.5235 5.92493 19.3902 6.05829C19.2568 6.19165 19.0759 6.26657 18.8873 6.26657H17.3762V18.8888C17.3762 19.6668 17.0672 20.4129 16.5171 20.963C15.967 21.5131 15.2209 21.8221 14.4429 21.8221H5.55399C4.77602 21.8221 4.02992 21.5131 3.47981 20.963C2.92971 20.4129 2.62066 19.6668 2.62066 18.8888V6.26657H1.10955C0.92095 6.26657 0.740076 6.19165 0.606717 6.05829C0.473358 5.92493 0.398438 5.74406 0.398438 5.55546C0.398438 5.36686 0.473358 5.18599 0.606717 5.05263C0.740076 4.91927 0.92095 4.84435 1.10955 4.84435H5.95399V3.33324C5.95399 2.55527 6.26304 1.80916 6.81315 1.25906C7.36325 0.708949 8.10936 0.399902 8.88733 0.399902H11.1095C11.8875 0.399902 12.6336 0.708949 13.1837 1.25906C13.7338 1.80916 14.0429 2.55527 14.0429 3.33324ZM7.37622 4.84435H12.6207V3.33324C12.6207 2.93246 12.4615 2.54811 12.1781 2.26472C11.8947 1.98133 11.5103 1.82212 11.1095 1.82212H8.88733C8.48656 1.82212 8.1022 1.98133 7.81881 2.26472C7.53542 2.54811 7.37622 2.93246 7.37622 3.33324V4.84435ZM15.954 6.26657H4.04288V18.8888C4.04288 19.2896 4.20209 19.6739 4.48548 19.9573C4.76887 20.2407 5.15322 20.3999 5.55399 20.3999H14.4429C14.8437 20.3999 15.228 20.2407 15.5114 19.9573C15.7948 19.6739 15.954 19.2896 15.954 18.8888V6.26657Z" fill="#4F4F4F"/>
</svg>
