<svg width="32" height="32" viewBox="0 0 32 32" fill="none" xmlns="http://www.w3.org/2000/svg">
    <path d="M26.6752 10.3252L26.3912 10.6069C26.3262 10.5413 26.2488 10.4893 26.1636 10.4538C26.0784 10.4183 25.987 10.4 25.8947 10.4C25.8023 10.4 25.7109 10.4183 25.6257 10.4538C25.5405 10.4893 25.4631 10.5413 25.3981 10.6069L25.3972 10.6078L18.199 17.8174L13.1988 12.8056C13.1338 12.7401 13.0565 12.688 12.9713 12.6525C12.886 12.617 12.7946 12.5987 12.7023 12.5987C12.61 12.5987 12.5186 12.617 12.4333 12.6525C12.3481 12.688 12.2708 12.7401 12.2058 12.8056L12.2046 12.8068L5.60726 19.4041C5.54171 19.4691 5.48968 19.5465 5.45418 19.6317C5.41867 19.7169 5.40039 19.8083 5.40039 19.9006C5.40039 19.993 5.41867 20.0844 5.45418 20.1696C5.48968 20.2548 5.54171 20.3322 5.60726 20.3972L5.60958 20.3995C5.6746 20.4651 5.75195 20.5171 5.83717 20.5526C5.92239 20.5881 6.0138 20.6064 6.10613 20.6064C6.19845 20.6064 6.28986 20.5881 6.37509 20.5526C6.46031 20.5171 6.53766 20.4651 6.60268 20.3995L6.60356 20.3986L12.7024 14.2883L17.7026 19.3001C17.7676 19.3657 17.8449 19.4177 17.9302 19.4532C18.0154 19.4887 18.1068 19.507 18.1991 19.507C18.2914 19.507 18.3829 19.4887 18.4681 19.4532C18.5533 19.4177 18.6306 19.3657 18.6957 19.3001L18.6968 19.299L26.3935 11.6023C26.4591 11.5373 26.5111 11.4599 26.5466 11.3747C26.5821 11.2895 26.6004 11.1981 26.6004 11.1057C26.6004 11.0134 26.5821 10.922 26.5466 10.8368C26.5111 10.7516 26.4591 10.6742 26.3935 10.6092L26.6752 10.3252Z" fill="#4F4F4F" stroke="#4F4F4F" stroke-width="0.2"/>
</svg>
